<svg width="88" height="80" viewBox="0 0 88 80" fill="none" xmlns="http://www.w3.org/2000/svg">
<circle cx="46.8" cy="38" r="32" fill="white"/>
<path d="M45 6V38H79C78.8618 28.0084 71.8683 7.62025 45 6Z" fill="#F3EDED"/>
<path d="M13 40H45V6C35.0084 6.13821 14.6203 13.1317 13 40Z" fill="#F8F7F7"/>
<g filter="url(#filter0_d_6_80)">
<rect x="10" y="21.2" width="35.2" height="35.2" rx="3" fill="white"/>
</g>
<path d="M19.0824 51V25.5455H27.6832C29.6802 25.5455 31.3125 25.9059 32.5803 26.6268C33.8563 27.3394 34.8009 28.3047 35.4141 29.5227C36.0272 30.7408 36.3338 32.0997 36.3338 33.5994C36.3338 35.0992 36.0272 36.4622 35.4141 37.6886C34.8092 38.9149 33.8729 39.8926 32.6051 40.6218C31.3374 41.3427 29.7133 41.7031 27.733 41.7031H21.5682V38.9688H27.6335C29.0007 38.9688 30.0986 38.7326 30.9272 38.2603C31.7558 37.788 32.3565 37.15 32.7294 36.3462C33.1106 35.5342 33.3011 34.6186 33.3011 33.5994C33.3011 32.5803 33.1106 31.6688 32.7294 30.8651C32.3565 30.0613 31.7517 29.4316 30.9148 28.9759C30.0779 28.5118 28.9676 28.2798 27.5838 28.2798H22.1648V51H19.0824Z" fill="black"/>
<defs>
<filter id="filter0_d_6_80" x="6" y="21.2" width="43.2" height="43.2" filterUnits="userSpaceOnUse" color-interpolation-filters="sRGB">
<feFlood flood-opacity="0" result="BackgroundImageFix"/>
<feColorMatrix in="SourceAlpha" type="matrix" values="0 0 0 0 0 0 0 0 0 0 0 0 0 0 0 0 0 0 127 0" result="hardAlpha"/>
<feOffset dy="4"/>
<feGaussianBlur stdDeviation="2"/>
<feComposite in2="hardAlpha" operator="out"/>
<feColorMatrix type="matrix" values="0 0 0 0 0 0 0 0 0 0 0 0 0 0 0 0 0 0 0.25 0"/>
<feBlend mode="normal" in2="BackgroundImageFix" result="effect1_dropShadow_6_80"/>
<feBlend mode="normal" in="SourceGraphic" in2="effect1_dropShadow_6_80" result="shape"/>
</filter>
</defs>
</svg>
