<svg width="80" height="80" viewBox="0 0 128 128" fill="none" xmlns="http://www.w3.org/2000/svg">
<path d="M62 5L2.5 15.5V111L65.5 122H73.5V5H62Z" fill="white"/>
<rect width="49.5465" height="94.0286" transform="translate(73.5 15.5)" fill="white"/>
<path d="M30 42L21 42.5L30.5 64L20 84.5L29 85L36 69L43 85.5L52.5 86.5L41 63.5L52 41H43L36 58L30 42Z" fill="black" stroke="black"/>
<path d="M73.5 19.5H74M74 19.5H119V105.5H74V19.5Z" stroke="black" stroke-width="0.5"/>
<rect x="91" y="28" width="19" height="9" fill="black"/>
<rect x="91" y="43" width="19" height="9" fill="black"/>
<rect x="91" y="58" width="19" height="9" fill="black"/>
<rect x="91" y="73" width="19" height="9" fill="black"/>
<rect x="91" y="88" width="19" height="9" fill="black"/>
<rect x="74" y="28" width="11" height="9" fill="black"/>
<rect x="74" y="43" width="11" height="9" fill="black"/>
<rect x="74" y="58" width="11" height="9" fill="black"/>
<rect x="74" y="73" width="11" height="9" fill="black"/>
<rect x="74" y="88" width="11" height="9" fill="black"/>
</svg>
