<svg width="80" height="80" viewBox="0 0 80 80" fill="none" xmlns="http://www.w3.org/2000/svg">
<g clip-path="url(#clip0_3_62)">
<ellipse cx="37.9333" cy="22.8917" rx="20.5333" ry="19.8917" fill="#EEEEEE"/>
<g filter="url(#filter0_d_3_62)">
<ellipse cx="59.75" cy="43.425" rx="19.25" ry="18.6083" fill="#F3F2F2"/>
</g>
<g filter="url(#filter1_d_3_62)">
<ellipse cx="41.7833" cy="60.1083" rx="16.6833" ry="16.0417" fill="white"/>
</g>
<g filter="url(#filter2_d_3_62)">
<rect x="2" y="20.9667" width="38.5" height="39.7833" rx="3" fill="white"/>
</g>
<path d="M27.5227 35.0682L24.5114 35.9205C24.322 35.4186 24.0426 34.9309 23.6733 34.4574C23.3134 33.9744 22.821 33.5767 22.196 33.2642C21.571 32.9517 20.7708 32.7955 19.7955 32.7955C18.4602 32.7955 17.3475 33.1032 16.4574 33.7188C15.5767 34.3248 15.1364 35.0966 15.1364 36.0341C15.1364 36.8674 15.4394 37.5256 16.0455 38.0085C16.6515 38.4915 17.5985 38.8939 18.8864 39.2159L22.125 40.0114C24.0758 40.4848 25.5294 41.2093 26.4858 42.1847C27.4422 43.1506 27.9205 44.3958 27.9205 45.9205C27.9205 47.1705 27.5606 48.2879 26.8409 49.2727C26.1307 50.2576 25.1364 51.0341 23.858 51.6023C22.5795 52.1705 21.0928 52.4545 19.3977 52.4545C17.1723 52.4545 15.3305 51.9716 13.8722 51.0057C12.4138 50.0398 11.4905 48.6288 11.1023 46.7727L14.2841 45.9773C14.5871 47.1515 15.16 48.0322 16.0028 48.6193C16.8551 49.2064 17.9678 49.5 19.3409 49.5C20.9034 49.5 22.1439 49.1686 23.0625 48.5057C23.9905 47.8333 24.4545 47.0284 24.4545 46.0909C24.4545 45.3333 24.1894 44.6989 23.6591 44.1875C23.1288 43.6667 22.3144 43.2784 21.2159 43.0227L17.5795 42.1705C15.5814 41.697 14.1136 40.9631 13.1761 39.9688C12.2481 38.965 11.7841 37.7102 11.7841 36.2045C11.7841 34.9735 12.1297 33.8845 12.821 32.9375C13.5218 31.9905 14.4735 31.2472 15.6761 30.7074C16.8883 30.1676 18.2614 29.8977 19.7955 29.8977C21.9545 29.8977 23.6496 30.3712 24.8807 31.3182C26.1212 32.2652 27.0019 33.5152 27.5227 35.0682Z" fill="black"/>
</g>
<defs>
<filter id="filter0_d_3_62" x="29.3" y="17.6167" width="60.9" height="59.6167" filterUnits="userSpaceOnUse" color-interpolation-filters="sRGB">
<feFlood flood-opacity="0" result="BackgroundImageFix"/>
<feColorMatrix in="SourceAlpha" type="matrix" values="0 0 0 0 0 0 0 0 0 0 0 0 0 0 0 0 0 0 127 0" result="hardAlpha"/>
<feOffset dy="4"/>
<feGaussianBlur stdDeviation="5.6"/>
<feComposite in2="hardAlpha" operator="out"/>
<feColorMatrix type="matrix" values="0 0 0 0 0 0 0 0 0 0 0 0 0 0 0 0 0 0 0.25 0"/>
<feBlend mode="normal" in2="BackgroundImageFix" result="effect1_dropShadow_3_62"/>
<feBlend mode="normal" in="SourceGraphic" in2="effect1_dropShadow_3_62" result="shape"/>
</filter>
<filter id="filter1_d_3_62" x="9.40001" y="32.3667" width="64.7667" height="63.4833" filterUnits="userSpaceOnUse" color-interpolation-filters="sRGB">
<feFlood flood-opacity="0" result="BackgroundImageFix"/>
<feColorMatrix in="SourceAlpha" type="matrix" values="0 0 0 0 0 0 0 0 0 0 0 0 0 0 0 0 0 0 127 0" result="hardAlpha"/>
<feOffset dy="4"/>
<feGaussianBlur stdDeviation="7.85"/>
<feComposite in2="hardAlpha" operator="out"/>
<feColorMatrix type="matrix" values="0 0 0 0 0 0 0 0 0 0 0 0 0 0 0 0 0 0 0.25 0"/>
<feBlend mode="normal" in2="BackgroundImageFix" result="effect1_dropShadow_3_62"/>
<feBlend mode="normal" in="SourceGraphic" in2="effect1_dropShadow_3_62" result="shape"/>
</filter>
<filter id="filter2_d_3_62" x="-2" y="20.9667" width="46.5" height="47.7833" filterUnits="userSpaceOnUse" color-interpolation-filters="sRGB">
<feFlood flood-opacity="0" result="BackgroundImageFix"/>
<feColorMatrix in="SourceAlpha" type="matrix" values="0 0 0 0 0 0 0 0 0 0 0 0 0 0 0 0 0 0 127 0" result="hardAlpha"/>
<feOffset dy="4"/>
<feGaussianBlur stdDeviation="2"/>
<feComposite in2="hardAlpha" operator="out"/>
<feColorMatrix type="matrix" values="0 0 0 0 0 0 0 0 0 0 0 0 0 0 0 0 0 0 0.25 0"/>
<feBlend mode="normal" in2="BackgroundImageFix" result="effect1_dropShadow_3_62"/>
<feBlend mode="normal" in="SourceGraphic" in2="effect1_dropShadow_3_62" result="shape"/>
</filter>
<clipPath id="clip0_3_62">
<rect width="80" height="80" fill="white"/>
</clipPath>
</defs>
</svg>
